<svg width="571" height="102" viewBox="0 0 571 102" fill="none" xmlns="http://www.w3.org/2000/svg">
<path d="M77.0035 90.192C75.9795 91.0453 74.0595 92.1973 71.2435 93.648C68.5128 95.0987 65.1422 96.3787 61.1315 97.488C57.1208 98.5973 52.6835 99.1093 47.8195 99.024C40.3955 98.8533 33.7395 97.5307 27.8515 95.056C22.0488 92.496 17.0995 89.04 13.0035 84.688C8.99283 80.336 5.92083 75.344 3.7875 69.712C1.65417 64.08 0.5875 58.064 0.5875 51.664C0.5875 44.496 1.65417 37.9253 3.7875 31.952C6.00617 25.9787 9.12083 20.816 13.1315 16.464C17.2275 12.112 22.0915 8.74133 27.7235 6.352C33.3555 3.96266 39.5848 2.768 46.4115 2.768C52.7262 2.768 58.3155 3.62133 63.1795 5.328C68.0435 7.03466 72.0115 8.86933 75.0835 10.832L67.7875 28.368C65.6542 26.7467 62.7955 25.0827 59.2115 23.376C55.7128 21.584 51.6595 20.688 47.0515 20.688C42.2728 20.688 37.7928 22.0107 33.6115 24.656C29.5155 27.3013 26.1875 30.8853 23.6275 35.408C21.1528 39.8453 19.9155 44.9227 19.9155 50.64C19.9155 56.6987 21.0675 62.032 23.3715 66.64C25.6755 71.1627 28.9608 74.704 33.2275 77.264C37.4942 79.824 42.4862 81.104 48.2035 81.104C53.2382 81.104 57.5475 80.2933 61.1315 78.672C64.7155 77.0507 67.4462 75.344 69.3235 73.552L77.0035 90.192ZM174.83 3.79199V98H156.27V59.728H114.158V98H95.5975V3.79199H114.158V41.808H156.27V3.79199H174.83ZM188.474 98L230.97 0.0799942H231.994L274.49 98H252.986L225.85 29.136L239.29 19.92L206.778 98H188.474ZM217.53 63.952H245.818L252.346 79.568H211.77L217.53 63.952ZM372.575 101.84L301.151 37.328L306.655 40.4L307.039 98H288.223V0.0799942H288.991L358.879 64.336L354.783 62.544L354.399 3.79199H373.087V101.84H372.575ZM473.764 88.528C472.654 89.7227 470.905 90.96 468.516 92.24C466.126 93.4347 463.353 94.544 460.196 95.568C457.124 96.592 453.966 97.4027 450.724 98C447.481 98.6827 444.409 99.024 441.508 99.024C431.353 99.024 422.521 97.0613 415.012 93.136C407.502 89.2107 401.7 83.8347 397.604 77.008C393.593 70.1813 391.588 62.3733 391.588 53.584C391.588 44.9653 392.868 37.4987 395.428 31.184C398.073 24.784 401.614 19.4933 406.052 15.312C410.574 11.0453 415.737 7.888 421.54 5.84C427.428 3.792 433.572 2.768 439.972 2.768C446.03 2.768 451.577 3.45066 456.612 4.81599C461.646 6.09599 465.913 7.71733 469.412 9.67999L463.396 26.96C461.86 26.1067 459.812 25.2533 457.252 24.4C454.692 23.5467 452.089 22.864 449.444 22.352C446.798 21.7547 444.452 21.456 442.404 21.456C435.662 21.456 429.902 22.608 425.124 24.912C420.43 27.1307 416.846 30.5013 414.372 35.024C411.982 39.5467 410.788 45.1787 410.788 51.92C410.788 57.808 412.11 62.8853 414.756 67.152C417.401 71.4187 421.07 74.704 425.764 77.008C430.542 79.312 435.961 80.464 442.02 80.464C444.665 80.464 447.097 80.2933 449.316 79.952C451.534 79.5253 453.412 78.8853 454.948 78.032V66.64H438.692V48.72H473.764V88.528ZM484.224 98L526.72 0.0799942H527.744L570.24 98H548.736L521.6 29.136L535.04 19.92L502.528 98H484.224ZM513.28 63.952H541.568L548.096 79.568H507.52L513.28 63.952Z" fill="url(#paint0_linear_194_48)"/>
<defs>
<linearGradient id="paint0_linear_194_48" x1="283" y1="-50" x2="283" y2="157" gradientUnits="userSpaceOnUse">
<stop stop-color="#FB773C"/>
<stop offset="1" stop-color="#C22E7D"/>
</linearGradient>
</defs>
</svg>
